<svg width="20" height="20" viewBox="0 0 20 20" fill="none" xmlns="http://www.w3.org/2000/svg">
<path d="M16.7201 3.82555C14.5201 2.32555 11.8034 3.02555 10.3368 4.74221C8.8701 3.02555 6.15343 2.31721 3.95343 3.82555C2.78677 4.62554 2.05343 5.97554 2.00343 7.40054C1.88677 10.6339 4.75343 13.2255 9.12843 17.2005L9.21177 17.2755C9.8451 17.8505 10.8201 17.8505 11.4534 17.2672L11.5451 17.1839C15.9201 13.2172 18.7784 10.6255 18.6701 7.39221C18.6201 5.97555 17.8868 4.62554 16.7201 3.82555V3.82555ZM10.4201 15.9589L10.3368 16.0422L10.2534 15.9589C6.28677 12.3672 3.6701 9.99221 3.6701 7.58388C3.6701 5.91721 4.9201 4.66721 6.58677 4.66721C7.8701 4.66721 9.1201 5.49221 9.56177 6.63388H11.1201C11.5534 5.49221 12.8034 4.66721 14.0868 4.66721C15.7534 4.66721 17.0034 5.91721 17.0034 7.58388C17.0034 9.99221 14.3868 12.3672 10.4201 15.9589Z" fill="#2BC39B"/>
</svg>
