<svg width="49" height="8" viewBox="0 0 49 8" fill="none" xmlns="http://www.w3.org/2000/svg">
<path d="M1.20977 7.56201C1.1431 7.56201 1.0831 7.53868 1.02977 7.49201C0.983099 7.43868 0.959766 7.37868 0.959766 7.31201V0.812012C0.959766 0.738678 0.983099 0.678678 1.02977 0.632012C1.0831 0.585345 1.1431 0.562011 1.20977 0.562011H2.28977C2.44977 0.562011 2.56643 0.635345 2.63977 0.782011L4.39977 3.93201L6.15977 0.782011C6.2331 0.635345 6.34977 0.562011 6.50977 0.562011H7.57977C7.6531 0.562011 7.7131 0.585345 7.75977 0.632012C7.8131 0.678678 7.83977 0.738678 7.83977 0.812012V7.31201C7.83977 7.38535 7.8131 7.44535 7.75977 7.49201C7.7131 7.53868 7.6531 7.56201 7.57977 7.56201H6.38977C6.31643 7.56201 6.2531 7.53868 6.19977 7.49201C6.1531 7.44535 6.12977 7.38535 6.12977 7.31201V3.56201L5.00977 5.65201C4.9231 5.80534 4.80643 5.88201 4.65977 5.88201H4.13977C4.0531 5.88201 3.9831 5.86201 3.92977 5.82201C3.87643 5.78201 3.82977 5.72534 3.78977 5.65201L2.65977 3.56201V7.31201C2.65977 7.37868 2.63643 7.43868 2.58977 7.49201C2.5431 7.53868 2.4831 7.56201 2.40977 7.56201H1.20977ZM12.091 7.66201C11.2643 7.66201 10.6277 7.46535 10.181 7.07201C9.73435 6.67868 9.49102 6.12535 9.45102 5.41201C9.44435 5.32534 9.44102 5.17534 9.44102 4.96201C9.44102 4.74868 9.44435 4.59868 9.45102 4.51201C9.49102 3.80534 9.74102 3.25534 10.201 2.86201C10.661 2.46201 11.291 2.26201 12.091 2.26201C12.8977 2.26201 13.531 2.46201 13.991 2.86201C14.451 3.25534 14.701 3.80534 14.741 4.51201C14.7477 4.59868 14.751 4.74868 14.751 4.96201C14.751 5.17534 14.7477 5.32534 14.741 5.41201C14.701 6.12535 14.4577 6.67868 14.011 7.07201C13.5643 7.46535 12.9243 7.66201 12.091 7.66201ZM12.091 6.44201C12.3843 6.44201 12.601 6.35534 12.741 6.18201C12.881 6.00201 12.961 5.72868 12.981 5.36201C12.9877 5.29534 12.991 5.16201 12.991 4.96201C12.991 4.76201 12.9877 4.62868 12.981 4.56201C12.961 4.20201 12.8777 3.93201 12.731 3.75201C12.591 3.57201 12.3777 3.48201 12.091 3.48201C11.5377 3.48201 11.2443 3.84201 11.211 4.56201L11.201 4.96201L11.211 5.36201C11.2243 5.72868 11.301 6.00201 11.441 6.18201C11.5877 6.35534 11.8043 6.44201 12.091 6.44201ZM17.899 7.56201C17.8057 7.56201 17.7323 7.54201 17.679 7.50201C17.6323 7.45535 17.5923 7.39201 17.559 7.31201L15.669 2.67201L15.649 2.58201C15.649 2.52201 15.669 2.47201 15.709 2.43201C15.7557 2.38534 15.8123 2.36201 15.879 2.36201H17.009C17.1557 2.36201 17.2523 2.43201 17.299 2.57201L18.429 5.64201L19.569 2.57201C19.6157 2.43201 19.7123 2.36201 19.859 2.36201H20.989C21.049 2.36201 21.1023 2.38534 21.149 2.43201C21.1957 2.47201 21.219 2.52201 21.219 2.58201L21.199 2.67201L19.309 7.31201C19.2757 7.39201 19.2323 7.45535 19.179 7.50201C19.1257 7.54201 19.0523 7.56201 18.959 7.56201H17.899ZM22.7363 1.61201C22.6629 1.61201 22.6029 1.58868 22.5563 1.54201C22.5096 1.49534 22.4863 1.43534 22.4863 1.36201V0.462011C22.4863 0.388678 22.5096 0.328678 22.5563 0.282011C22.6029 0.235345 22.6629 0.212012 22.7363 0.212012H23.9363C24.0096 0.212012 24.0696 0.235345 24.1163 0.282011C24.1629 0.328678 24.1863 0.388678 24.1863 0.462011V1.36201C24.1863 1.43534 24.1629 1.49534 24.1163 1.54201C24.0696 1.58868 24.0096 1.61201 23.9363 1.61201H22.7363ZM22.7463 7.56201C22.6729 7.56201 22.6129 7.53868 22.5662 7.49201C22.5196 7.44535 22.4963 7.38535 22.4963 7.31201V2.61201C22.4963 2.53868 22.5196 2.47868 22.5662 2.43201C22.6129 2.38534 22.6729 2.36201 22.7463 2.36201H23.9263C23.9996 2.36201 24.0596 2.38534 24.1063 2.43201C24.1529 2.47868 24.1763 2.53868 24.1763 2.61201V7.31201C24.1763 7.37868 24.1529 7.43868 24.1063 7.49201C24.0596 7.53868 23.9996 7.56201 23.9263 7.56201H22.7463ZM28.2576 7.66201C27.4576 7.66201 26.8276 7.44535 26.3676 7.01201C25.9076 6.57868 25.6676 5.94868 25.6476 5.12201V4.77201C25.6742 3.98534 25.9176 3.37201 26.3776 2.93201C26.8442 2.48534 27.4676 2.26201 28.2476 2.26201C28.8142 2.26201 29.2909 2.37868 29.6776 2.61201C30.0709 2.83868 30.3642 3.15201 30.5576 3.55201C30.7576 3.95201 30.8576 4.41201 30.8576 4.93201V5.17201C30.8576 5.23868 30.8342 5.29868 30.7876 5.35201C30.7409 5.39868 30.6809 5.42201 30.6076 5.42201H27.4076V5.49201C27.4209 5.80534 27.4976 6.05868 27.6376 6.25201C27.7776 6.44534 27.9809 6.54201 28.2476 6.54201C28.4142 6.54201 28.5509 6.50868 28.6576 6.44201C28.7642 6.36868 28.8609 6.28201 28.9476 6.18201C29.0076 6.10868 29.0542 6.06534 29.0876 6.05201C29.1276 6.03201 29.1876 6.02201 29.2676 6.02201H30.5076C30.5676 6.02201 30.6176 6.04201 30.6576 6.08201C30.7042 6.11535 30.7276 6.16201 30.7276 6.22201C30.7276 6.39535 30.6276 6.59535 30.4276 6.82201C30.2342 7.04868 29.9509 7.24535 29.5776 7.41201C29.2042 7.57868 28.7642 7.66201 28.2576 7.66201ZM29.0976 4.43201V4.41201C29.0976 4.08534 29.0209 3.82868 28.8676 3.64201C28.7209 3.44868 28.5142 3.35201 28.2476 3.35201C27.9876 3.35201 27.7809 3.44868 27.6276 3.64201C27.4809 3.82868 27.4076 4.08534 27.4076 4.41201V4.43201H29.0976ZM35.0951 7.66201C34.2017 7.66201 33.5217 7.42201 33.0551 6.94201C32.5951 6.46201 32.3484 5.79868 32.3151 4.95201C32.3084 4.77201 32.3051 4.47868 32.3051 4.07201C32.3051 3.65868 32.3084 3.35868 32.3151 3.17201C32.3484 2.33201 32.5984 1.67201 33.0651 1.19201C33.5317 0.705345 34.2084 0.462011 35.0951 0.462011C35.6884 0.462011 36.1917 0.568678 36.6051 0.782011C37.0184 0.988678 37.3317 1.26201 37.5451 1.60201C37.7584 1.94201 37.8751 2.30534 37.8951 2.69201V2.71201C37.8951 2.76534 37.8717 2.81201 37.8251 2.85201C37.7851 2.88534 37.7384 2.90201 37.6851 2.90201H37.1351C37.0017 2.90201 36.9184 2.82534 36.8851 2.67201C36.7717 2.17201 36.5684 1.82201 36.2751 1.62201C35.9817 1.41534 35.5884 1.31201 35.0951 1.31201C33.9484 1.31201 33.3551 1.94868 33.3151 3.22201C33.3084 3.40201 33.3051 3.67868 33.3051 4.05201C33.3051 4.42534 33.3084 4.70868 33.3151 4.90201C33.3551 6.17535 33.9484 6.81201 35.0951 6.81201C35.5884 6.81201 35.9817 6.71201 36.2751 6.51201C36.5751 6.30534 36.7784 5.95201 36.8851 5.45201C36.9051 5.36534 36.9351 5.30534 36.9751 5.27201C37.0151 5.23868 37.0684 5.22201 37.1351 5.22201H37.6851C37.7451 5.22201 37.7951 5.24201 37.8351 5.28201C37.8817 5.31534 37.9017 5.36201 37.8951 5.42201C37.8751 5.81534 37.7584 6.18201 37.5451 6.52201C37.3317 6.86201 37.0184 7.13868 36.6051 7.35201C36.1917 7.55868 35.6884 7.66201 35.0951 7.66201ZM41.0552 7.66201C40.7286 7.66201 40.4252 7.59535 40.1452 7.46201C39.8652 7.32868 39.6419 7.14868 39.4752 6.92201C39.3152 6.68868 39.2352 6.43201 39.2352 6.15201C39.2352 5.71201 39.4152 5.35201 39.7752 5.07201C40.1419 4.78534 40.6352 4.59868 41.2552 4.51201L42.7452 4.30201V4.01201C42.7452 3.33201 42.3552 2.99201 41.5752 2.99201C41.2819 2.99201 41.0419 3.05534 40.8552 3.18201C40.6686 3.30201 40.5286 3.44534 40.4352 3.61201C40.4152 3.67201 40.3886 3.71534 40.3552 3.74201C40.3286 3.76868 40.2886 3.78201 40.2352 3.78201H39.8052C39.7452 3.78201 39.6919 3.76201 39.6452 3.72201C39.6052 3.67534 39.5852 3.62201 39.5852 3.56201C39.5919 3.40201 39.6652 3.22201 39.8052 3.02201C39.9519 2.81534 40.1752 2.63868 40.4752 2.49201C40.7752 2.33868 41.1452 2.26201 41.5852 2.26201C42.3319 2.26201 42.8686 2.43868 43.1952 2.79201C43.5219 3.13868 43.6852 3.57201 43.6852 4.09201V7.33201C43.6852 7.39868 43.6619 7.45535 43.6152 7.50201C43.5752 7.54201 43.5219 7.56201 43.4552 7.56201H42.9952C42.9286 7.56201 42.8719 7.54201 42.8252 7.50201C42.7852 7.45535 42.7652 7.39868 42.7652 7.33201V6.90201C42.6186 7.11535 42.4052 7.29535 42.1252 7.44201C41.8452 7.58868 41.4886 7.66201 41.0552 7.66201ZM41.2652 6.91201C41.6986 6.91201 42.0519 6.77201 42.3252 6.49201C42.6052 6.20534 42.7452 5.79534 42.7452 5.26201V4.98201L41.5852 5.15201C41.1119 5.21868 40.7552 5.33201 40.5152 5.49201C40.2752 5.64534 40.1552 5.84201 40.1552 6.08201C40.1552 6.34868 40.2652 6.55535 40.4852 6.70201C40.7052 6.84201 40.9652 6.91201 41.2652 6.91201ZM47.604 7.56201C46.5507 7.56201 46.024 6.97535 46.024 5.80201V3.16201H45.244C45.1773 3.16201 45.1207 3.14201 45.074 3.10201C45.034 3.05534 45.014 2.99868 45.014 2.93201V2.59201C45.014 2.52534 45.034 2.47201 45.074 2.43201C45.1207 2.38534 45.1773 2.36201 45.244 2.36201H46.024V0.692011C46.024 0.625345 46.044 0.572012 46.084 0.532012C46.1307 0.485345 46.1873 0.462011 46.254 0.462011H46.724C46.7907 0.462011 46.844 0.485345 46.884 0.532012C46.9307 0.572012 46.954 0.625345 46.954 0.692011V2.36201H48.194C48.2607 2.36201 48.314 2.38534 48.354 2.43201C48.4007 2.47201 48.424 2.52534 48.424 2.59201V2.93201C48.424 2.99868 48.4007 3.05534 48.354 3.10201C48.314 3.14201 48.2607 3.16201 48.194 3.16201H46.954V5.73201C46.954 6.06534 47.0107 6.31868 47.124 6.49201C47.2373 6.65868 47.424 6.74201 47.684 6.74201H48.294C48.3607 6.74201 48.414 6.76535 48.454 6.81201C48.5007 6.85201 48.524 6.90535 48.524 6.97201V7.33201C48.524 7.39868 48.5007 7.45535 48.454 7.50201C48.414 7.54201 48.3607 7.56201 48.294 7.56201H47.604Z" fill="#212121"/>
</svg>
