<svg width="189" height="40" viewBox="0 0 189 40" fill="none" xmlns="http://www.w3.org/2000/svg">
<rect width="189" height="40" rx="20" fill="#2BC39B"/>
<path d="M56.632 26C56.5253 26 56.4347 25.9627 56.36 25.888C56.2853 25.8133 56.248 25.7227 56.248 25.616V15.2C56.248 15.0827 56.28 14.9867 56.344 14.912C56.4187 14.8373 56.5147 14.8 56.632 14.8H60.92C62.2 14.8 63.208 15.104 63.944 15.712C64.68 16.3093 65.048 17.1893 65.048 18.352C65.048 19.5147 64.68 20.3947 63.944 20.992C63.2187 21.5787 62.2107 21.872 60.92 21.872H58.536V25.616C58.536 25.7227 58.4987 25.8133 58.424 25.888C58.36 25.9627 58.2693 26 58.152 26H56.632ZM60.84 20.096C61.4587 20.096 61.9333 19.952 62.264 19.664C62.5947 19.3653 62.76 18.928 62.76 18.352C62.76 17.7973 62.6 17.3653 62.28 17.056C61.96 16.736 61.48 16.576 60.84 16.576H58.504V20.096H60.84ZM67.1789 26C67.0722 26 66.9815 25.9627 66.9069 25.888C66.8322 25.8133 66.7949 25.7227 66.7949 25.616V15.184C66.7949 15.0667 66.8322 14.976 66.9069 14.912C66.9815 14.8373 67.0722 14.8 67.1789 14.8H68.6669C68.7842 14.8 68.8749 14.8373 68.9389 14.912C69.0135 14.976 69.0509 15.0667 69.0509 15.184V24.096H74.1229C74.2402 24.096 74.3362 24.1333 74.4109 24.208C74.4855 24.2827 74.5229 24.3787 74.5229 24.496V25.616C74.5229 25.7333 74.4855 25.8293 74.4109 25.904C74.3362 25.968 74.2402 26 74.1229 26H67.1789ZM75.3881 26C75.3028 26 75.2228 25.968 75.1481 25.904C75.0841 25.84 75.0521 25.76 75.0521 25.664L75.0841 25.52L78.9401 15.2C79.0148 14.9333 79.2015 14.8 79.5001 14.8H81.2441C81.5215 14.8 81.7081 14.9333 81.8041 15.2L85.6601 25.52C85.6708 25.552 85.6761 25.6 85.6761 25.664C85.6761 25.76 85.6441 25.84 85.5801 25.904C85.5161 25.968 85.4415 26 85.3561 26H83.9641C83.8255 26 83.7188 25.968 83.6441 25.904C83.5695 25.84 83.5215 25.7707 83.5001 25.696L82.7481 23.744H77.9961L77.2441 25.696C77.1588 25.8987 77.0041 26 76.7801 26H75.3881ZM82.1881 21.904L80.3641 16.96L78.5561 21.904H82.1881ZM89.2791 26C89.1725 26 89.0818 25.9627 89.0071 25.888C88.9325 25.8133 88.8951 25.7227 88.8951 25.616V22L85.1191 15.312C85.0871 15.2587 85.0711 15.2 85.0711 15.136C85.0711 15.04 85.1031 14.96 85.1671 14.896C85.2311 14.832 85.3058 14.8 85.3911 14.8H86.8151C86.9325 14.8 87.0285 14.832 87.1031 14.896C87.1885 14.96 87.2525 15.0293 87.2951 15.104L90.0151 19.76L92.7191 15.104C92.8471 14.9013 93.0125 14.8 93.2151 14.8H94.6231C94.7191 14.8 94.7991 14.832 94.8631 14.896C94.9271 14.96 94.9591 15.04 94.9591 15.136C94.9591 15.2 94.9431 15.2587 94.9111 15.312L91.1351 22V25.616C91.1351 25.7227 91.0978 25.8133 91.0231 25.888C90.9485 25.9627 90.8525 26 90.7351 26H89.2791ZM100.148 26C100.041 26 99.9503 25.9627 99.8756 25.888C99.801 25.8133 99.7636 25.7227 99.7636 25.616V15.2C99.7636 15.0827 99.7956 14.9867 99.8596 14.912C99.9343 14.8373 100.03 14.8 100.148 14.8H101.38C101.508 14.8 101.604 14.8267 101.668 14.88C101.732 14.9227 101.79 14.9813 101.844 15.056L106.452 22.224V15.2C106.452 15.0827 106.484 14.9867 106.548 14.912C106.622 14.8373 106.718 14.8 106.836 14.8H108.18C108.297 14.8 108.393 14.8373 108.468 14.912C108.542 14.9867 108.58 15.0827 108.58 15.2V25.6C108.58 25.7173 108.542 25.8133 108.468 25.888C108.393 25.9627 108.302 26 108.196 26H106.948C106.766 26 106.612 25.9147 106.484 25.744L101.892 18.736V25.616C101.892 25.7333 101.854 25.8293 101.78 25.904C101.705 25.968 101.609 26 101.492 26H100.148ZM115.38 26.16C113.929 26.16 112.799 25.792 111.988 25.056C111.177 24.32 110.751 23.2267 110.708 21.776C110.697 21.4667 110.692 21.0133 110.692 20.416C110.692 19.808 110.697 19.3493 110.708 19.04C110.751 17.6213 111.188 16.5333 112.02 15.776C112.852 15.0187 113.972 14.64 115.38 14.64C116.788 14.64 117.908 15.0187 118.74 15.776C119.583 16.5333 120.025 17.6213 120.068 19.04C120.089 19.6587 120.1 20.1173 120.1 20.416C120.1 20.704 120.089 21.1573 120.068 21.776C120.015 23.2267 119.583 24.32 118.772 25.056C117.961 25.792 116.831 26.16 115.38 26.16ZM115.38 24.32C116.095 24.32 116.665 24.1067 117.092 23.68C117.519 23.2427 117.748 22.5813 117.78 21.696C117.801 21.056 117.812 20.624 117.812 20.4C117.812 20.1547 117.801 19.7227 117.78 19.104C117.748 18.2187 117.519 17.5627 117.092 17.136C116.665 16.6987 116.095 16.48 115.38 16.48C114.676 16.48 114.111 16.6987 113.684 17.136C113.257 17.5627 113.028 18.2187 112.996 19.104C112.985 19.4133 112.98 19.8453 112.98 20.4C112.98 20.944 112.985 21.376 112.996 21.696C113.028 22.5813 113.252 23.2427 113.668 23.68C114.095 24.1067 114.665 24.32 115.38 24.32ZM123.916 26C123.756 26 123.628 25.9573 123.532 25.872C123.436 25.7867 123.377 25.6693 123.356 25.52L121.452 15.264L121.436 15.136C121.436 15.04 121.468 14.96 121.532 14.896C121.607 14.832 121.687 14.8 121.772 14.8H123.18C123.447 14.8 123.596 14.9067 123.628 15.12L124.956 22.368L126.396 17.68C126.503 17.4133 126.679 17.28 126.924 17.28H127.788C128.055 17.28 128.225 17.4133 128.3 17.68L129.756 22.352L131.084 15.12C131.105 15.0027 131.148 14.9227 131.212 14.88C131.287 14.8267 131.393 14.8 131.532 14.8H132.94C133.025 14.8 133.1 14.832 133.164 14.896C133.228 14.96 133.26 15.04 133.26 15.136C133.26 15.1893 133.255 15.232 133.244 15.264L131.34 25.52C131.287 25.84 131.1 26 130.78 26H129.708C129.559 26 129.436 25.9627 129.34 25.888C129.244 25.8133 129.18 25.7173 129.148 25.6L127.356 20.256L125.564 25.6C125.457 25.8667 125.265 26 124.988 26H123.916Z" fill="#FAFAFA"/>
</svg>
